<?xml version="1.0" encoding="UTF-8"?>
<svg version="1.1" xmlns="http://www.w3.org/2000/svg" width="518" height="519">
<path d="M0 0 C170.94 0 341.88 0 518 0 C518 171.27 518 342.54 518 519 C347.06 519 176.12 519 0 519 C0 347.73 0 176.46 0 0 Z " fill="#FEFEFE" transform="translate(0,0)"/>
<path d="M0 0 C0.87342295 -0.00322445 1.7468459 -0.00644889 2.6467362 -0.00977105 C4.10261095 -0.00744815 4.10261095 -0.00744815 5.5878973 -0.00507832 C6.61060142 -0.00734387 7.63330554 -0.00960943 8.68700069 -0.01194364 C12.14290465 -0.01831609 15.59876971 -0.01745217 19.05467892 -0.01662922 C21.5214458 -0.01961894 23.9882122 -0.02302103 26.45497799 -0.02680683 C32.48075997 -0.03475286 38.50652644 -0.03786269 44.53231222 -0.03841921 C49.43632924 -0.03889406 54.34034302 -0.0409473 59.24435902 -0.04411983 C73.15779659 -0.05293691 87.07122644 -0.05753834 100.98466683 -0.05678936 C101.73560773 -0.0567494 102.48654864 -0.05670945 103.26024532 -0.05666828 C104.01210839 -0.0566274 104.76397146 -0.05658652 105.53861826 -0.0565444 C117.68806203 -0.0561391 129.83747463 -0.06567655 141.9869094 -0.07980665 C154.47139753 -0.09421112 166.95587052 -0.10107439 179.44036716 -0.10021287 C186.44518022 -0.09988198 193.44996073 -0.10258046 200.45476627 -0.11339092 C207.05634574 -0.12351351 213.65786865 -0.12311904 220.25945568 -0.11587429 C222.67318542 -0.11483383 225.08691951 -0.11715907 227.50064182 -0.12323475 C272.50613721 -0.22910892 272.50613721 -0.22910892 290.15404415 16.1559782 C302.94268614 29.52482323 305.56874442 46.16532185 305.4079504 64.00363445 C305.40338833 65.08179424 305.40338833 65.08179424 305.39873409 66.18173504 C305.27138129 86.65440558 301.15359325 105.66904727 294.9704504 125.12863445 C294.46505733 126.7231242 294.46505733 126.7231242 293.94945431 128.34982586 C287.37101827 148.92632076 280.20010977 169.0611421 269.9704504 188.12863445 C269.40713009 189.18437664 268.84380978 190.24011883 268.26341915 191.3278532 C254.41843431 216.13210004 233.7075519 232.97137306 206.49644661 241.12638664 C186.87781629 246.60066317 166.9683617 246.60228507 146.7633884 246.63474536 C142.78358907 246.64426787 138.80389617 246.67047961 134.82416439 246.69475079 C127.32378352 246.7380445 119.82342373 246.76681741 112.32295686 246.79007417 C103.76876107 246.81732769 95.21467434 246.8612247 86.66055715 246.90636289 C69.09724483 246.99867589 51.53390881 247.07059777 33.9704504 247.12863445 C33.72137936 247.95887127 33.72137936 247.95887127 33.46727657 248.80588055 C20.4704504 292.12863446 20.4704504 292.12863446 19.76227474 294.48919964 C19.26347013 296.15189448 18.76467879 297.8145933 18.26590633 299.47729778 C17.0399255 303.56414489 15.81374031 307.65093034 14.58690548 311.73752117 C12.24829358 319.52856542 9.91192622 327.32025925 7.58492184 335.11477947 C6.53952863 338.61594849 5.4927297 342.11669649 4.4457922 345.61740398 C3.91098902 347.40693131 3.37683121 349.19665161 2.84325314 350.98654461 C2.05792485 353.62035676 1.27028382 356.25346744 0.48216915 358.88644695 C0.12441654 360.08927822 0.12441654 360.08927822 -0.24056339 361.31640911 C-1.91568009 366.90089543 -1.91568009 366.90089543 -3.0295496 369.12863445 C-43.9495496 369.12863445 -84.8695496 369.12863445 -127.0295496 369.12863445 C-123.65453014 356.7535631 -123.65453014 356.7535631 -121.80473232 351.20250034 C-121.60065392 350.58735825 -121.39657551 349.97221615 -121.18631291 349.33843338 C-120.51295719 347.31116277 -119.8354095 345.28532069 -119.15781498 343.25946331 C-118.66483423 341.77821285 -118.17211473 340.29687543 -117.67963183 338.81545937 C-116.33424135 334.77098182 -114.98514263 330.72774986 -113.635396 326.68472433 C-112.17722502 322.31475166 -110.72251872 317.94362567 -109.26735783 313.57264996 C-106.420463 305.02308879 -103.5703373 296.47460809 -100.71903776 287.92651503 C-98.40303005 280.98301234 -96.08819657 274.03911923 -93.77419758 267.09494686 C-93.44462478 266.10592201 -93.11505199 265.11689716 -92.77549214 264.09790186 C-92.10597679 262.08871636 -91.43646413 260.07952996 -90.76695414 258.07034267 C-84.49529843 239.24967804 -78.21997071 220.43023936 -71.94337972 201.61122014 C-66.55354437 185.4506624 -61.16686732 169.28905478 -55.78247929 153.12668133 C-49.5294984 134.35704872 -43.2745817 115.5880631 -37.01654875 96.82011425 C-36.35012001 94.82146514 -35.68369378 92.82281519 -35.01727009 90.82416439 C-34.68936664 89.8407626 -34.36146319 88.85736081 -34.02362328 87.84415897 C-31.70860661 80.90083875 -29.39498633 73.95705415 -27.08189869 67.01309109 C-24.26703516 58.56290642 -21.4500532 50.11343162 -18.63030623 41.66487519 C-17.19070944 37.3513594 -15.75209435 33.03752259 -14.31605434 28.72282124 C-13.00365924 24.77971195 -11.68853645 20.83752391 -10.37115486 16.89607789 C-9.89306027 15.46404317 -9.41599547 14.0316642 -8.94002061 12.59892355 C-8.29698934 10.66381963 -7.64996102 8.73004524 -7.00268459 6.79635715 C-6.46345287 5.17914904 -6.46345287 5.17914904 -5.91332757 3.52927005 C-4.54465605 -0.18849806 -3.78226412 0.00350799 0 0 Z " fill="#000000" transform="translate(169.02954959869385,74.87136554718018)"/>
<path d="M0 0 C0.69620956 -0.0065712 1.39241913 -0.0131424 2.10972595 -0.01991272 C4.42984117 -0.03972344 6.7498908 -0.05133749 9.07006836 -0.0612793 C9.8655905 -0.06535482 10.66111263 -0.06943035 11.4807415 -0.07362938 C15.70721046 -0.09454246 19.93364665 -0.10881036 24.16015625 -0.11816406 C28.48698112 -0.12912212 32.81327637 -0.1633807 37.13991642 -0.20333576 C40.49556793 -0.22977205 43.85109981 -0.23788045 47.20684624 -0.24144554 C48.79853246 -0.24625773 50.39021535 -0.25771415 51.98179817 -0.27648354 C65.5852687 -0.42667882 82.01876375 0.12135751 92.34741211 10.17700195 C97.34732169 15.60344411 98.08735688 21.82200399 98.01220703 28.95800781 C97.02477989 48.58180067 90.1775698 67.19218473 75.88452148 80.81958008 C58.73351893 95.96563697 37.04669546 97.51603808 15.35522461 97.37231445 C13.67129689 97.36857362 11.98736697 97.36573172 10.30343628 97.36373901 C5.92069239 97.35618669 1.53808595 97.33661286 -2.84460449 97.31433105 C-7.33656964 97.29368915 -11.8285575 97.2846985 -16.32055664 97.2746582 C-25.09796271 97.253357 -33.8752581 97.21932569 -42.65258789 97.17700195 C-41.96252812 93.08820242 -40.72571176 89.39941489 -39.27929688 85.5168457 C-38.9179641 84.54222382 -38.9179641 84.54222382 -38.54933167 83.5479126 C-37.7527295 81.40207876 -36.95076392 79.2582928 -36.14868164 77.11450195 C-35.58604389 75.60265275 -35.02371729 74.09068773 -34.46168518 72.57861328 C-32.97704977 68.5872736 -31.48775929 64.59768579 -29.99761963 60.60839844 C-28.80512092 57.4135381 -27.6159684 54.21743774 -26.42697716 51.02127075 C-22.84839137 41.40168384 -19.25696053 31.7869562 -15.65258789 22.17700195 C-15.20699524 20.98880859 -14.76140259 19.80061523 -14.30230713 18.57641602 C-13.16371597 15.54600581 -12.02085071 12.51726585 -10.87524414 9.48950195 C-10.55365829 8.63445068 -10.23207245 7.77939941 -9.90074158 6.8984375 C-7.36122958 0.21980549 -7.13952275 0.05559822 0 0 Z " fill="#FDFDFD" transform="translate(270.652587890625,149.822998046875)"/>
<path d="M0 0 C170.94 0 341.88 0 518 0 C518 171.27 518 342.54 518 519 C347.06 519 176.12 519 0 519 C0 347.73 0 176.46 0 0 Z M503.92771053 3.01561737 C502.63643355 3.01815086 502.63643355 3.01815086 501.31907016 3.02073553 C498.39809245 3.02646894 495.47711477 3.03221651 492.55613708 3.03796387 C490.46084595 3.04207949 488.36555481 3.04619426 486.27026367 3.05030823 C480.47152805 3.0616962 474.67279245 3.07309656 468.87405686 3.08449876 C462.54027276 3.09695089 456.20648863 3.10939164 449.87270451 3.1218338 C438.96193503 3.14326857 428.05116557 3.16471032 417.14039612 3.18615723 C401.50704958 3.2168871 385.87370301 3.24760476 370.24035645 3.27832031 C332.63940428 3.35220285 295.03845214 3.42610248 257.4375 3.5 C131.4909375 3.7475 131.4909375 3.7475 3 4 C2.67 172.3 2.34 340.6 2 514 C170.63 514 339.26 514 513 514 C513 345.37 513 176.74 513 3 C509.97590759 3 506.95179776 3.00965696 503.92771053 3.01561737 Z " fill="#B5B5B5" transform="translate(0,0)"/>
<path d="M0 0 C0.818512 0.00234117 1.63702401 0.00468233 2.48033941 0.00709444 C3.34564098 0.005641 4.21094256 0.00418756 5.10246539 0.00269008 C8.03999953 -0.00099731 10.97748266 0.00252908 13.91501653 0.00595194 C16.02706496 0.0048012 18.13911318 0.003214 20.25116098 0.0012247 C26.08458219 -0.00297512 31.91798717 -0.00087501 37.75140846 0.00221092 C44.03095174 0.00446216 50.31049212 0.00098679 56.59003484 -0.00176901 C68.19060683 -0.00597052 79.79117219 -0.00558972 91.39174435 -0.00285754 C102.10686924 -0.00034615 112.82199223 0.00031667 123.53711736 -0.00088018 C124.60151089 -0.00099476 124.60151089 -0.00099476 125.68740732 -0.00111165 C128.56758179 -0.00142297 131.44775626 -0.00174137 134.32793072 -0.00207142 C161.36946062 -0.00513332 188.41098719 -0.00235235 215.45251657 0.00302548 C239.49950727 0.00777141 263.54649268 0.00734679 287.59348333 0.00256449 C314.58422302 -0.00278525 341.57495978 -0.00491621 368.56569993 -0.00182325 C371.44075493 -0.00150251 374.31580992 -0.00118967 377.19086492 -0.00088018 C378.2528036 -0.00076157 378.2528036 -0.00076157 379.3361956 -0.00064055 C390.04696915 0.00049894 400.75774059 -0.00083712 411.46851385 -0.00335974 C423.64199068 -0.00621248 435.81545966 -0.00542135 447.98893607 -0.00007899 C454.20663865 0.00255922 460.42433046 0.00356107 466.64203298 0.00027186 C472.32408488 -0.00268866 478.00611592 -0.00110242 483.6881659 0.00424941 C485.75341585 0.00537465 487.81866753 0.00478008 489.88391638 0.00237362 C492.67185096 -0.00062793 495.45971225 0.00241158 498.24764287 0.00709444 C499.47541088 0.00358269 499.47541088 0.00358269 500.72798228 0 C506.2498408 0.01878525 506.2498408 0.01878525 507.36399114 1.13293558 C507.4629507 3.85281824 507.49574955 6.54732323 507.48703897 9.26769453 C507.48819271 10.13530183 507.48934646 11.00290912 507.49053517 11.89680755 C507.49320833 14.84077502 507.48867494 17.7846892 507.48424566 20.72865397 C507.48468261 22.84040438 507.48555866 24.95215475 507.48683965 27.06390482 C507.48909549 32.90823462 507.48505177 38.75254629 507.48006387 44.59687378 C507.47571759 50.98043789 507.47715713 57.36400109 507.47788179 63.74756628 C507.47835422 74.74410281 507.47527106 85.74063338 507.4695667 96.73716837 C507.46140768 112.49340015 507.45946464 128.24962543 507.45859563 144.00586039 C507.4533386 181.9023866 507.43937759 219.7989112 507.42649114 257.69543558 C507.40586614 342.31981058 507.38524114 426.94418558 507.36399114 514.13293558 C337.74399114 514.13293558 168.12399114 514.13293558 -6.63600886 514.13293558 C-6.65663386 429.50856058 -6.67725886 344.88418558 -6.69850886 257.69543558 C-6.70761286 230.92233256 -6.71671687 204.14922953 -6.72609675 176.56482035 C-6.73061335 144.00586039 -6.73061335 144.00586039 -6.73145258 128.78953654 C-6.73245038 117.39994298 -6.73677404 106.01035549 -6.74268229 94.62076384 C-6.74861865 83.02097237 -6.75077061 71.42118557 -6.74945381 59.82139253 C-6.74884824 53.51922904 -6.74984535 47.21707673 -6.75522399 40.91491526 C-6.76004852 35.22778898 -6.76035979 29.54068191 -6.75690997 23.85355479 C-6.75648227 21.78655938 -6.75778158 19.71956282 -6.76089144 17.65256971 C-6.76485286 14.85758725 -6.76277346 12.0626757 -6.75905669 9.26769453 C-6.76168371 8.44725703 -6.76431074 7.62681953 -6.76701737 6.78152028 C-6.74708105 0.2385102 -6.5441607 0.0222631 0 0 Z M497.29170167 2.14855295 C496.00042469 2.15108644 496.00042469 2.15108644 494.68306131 2.15367112 C491.76208359 2.15940452 488.84110591 2.16515209 485.92012823 2.17089945 C483.82483709 2.17501508 481.72954595 2.17912984 479.63425481 2.18324381 C473.83551919 2.19463179 468.0367836 2.20603214 462.238048 2.21743435 C455.9042639 2.22988647 449.57047977 2.24232722 443.23669565 2.25476938 C432.32592617 2.27620415 421.41515671 2.29764591 410.50438726 2.31909281 C394.87104072 2.34982268 379.23769416 2.38054034 363.60434759 2.4112559 C326.00339542 2.48513843 288.40244328 2.55903806 250.80149114 2.63293558 C124.85492864 2.88043558 124.85492864 2.88043558 -3.63600886 3.13293558 C-3.96600886 171.43293558 -4.29600886 339.73293558 -4.63600886 513.13293558 C163.99399114 513.13293558 332.62399114 513.13293558 506.36399114 513.13293558 C506.36399114 344.50293558 506.36399114 175.87293558 506.36399114 2.13293558 C503.33989873 2.13293558 500.3157889 2.14259255 497.29170167 2.14855295 Z " fill="#4C4C4E" transform="translate(6.636008858680725,0.8670644164085388)"/>
<path d="M0 0 C166.98 0 333.96 0 506 0 C506 0.99 506 1.98 506 3 C339.02 3 172.04 3 0 3 C0 2.01 0 1.02 0 0 Z " fill="#8C8C8C" transform="translate(0,516)"/>
<path d="M0 0 C170.94 0 341.88 0 518 0 C518 42.57 518 85.14 518 129 C517.01 129 516.02 129 515 129 C515 256.38 515 383.76 515 515 C514.67 515 514.34 515 514 515 C513.67 345.71 513.34 176.42 513 2 C343.71 2 174.42 2 0 2 C0 1.34 0 0.68 0 0 Z " fill="#CCCED2" transform="translate(0,0)"/>
<path d="M0 0 C0.99 0 1.98 0 3 0 C3.06999059 28.64987815 3.12293929 57.29974353 3.15543652 85.94968987 C3.17092464 99.25149003 3.19205121 112.55321687 3.22631836 125.85498047 C3.25616127 137.44484495 3.27556084 149.03467104 3.28226548 160.62457287 C3.28618642 166.76490919 3.29544136 172.90513565 3.31719017 179.04543686 C3.33747468 184.8188214 3.34385015 190.59205028 3.33932304 196.36546707 C3.34015186 198.48998611 3.34616509 200.61451008 3.35761642 202.73899841 C3.37243488 205.62867351 3.36899279 208.51775271 3.36076355 211.40744019 C3.36950207 212.25762313 3.3782406 213.10780607 3.38724393 213.98375213 C3.36914349 216.31808281 3.36914349 216.31808281 3 220 C1.515 220.99 1.515 220.99 0 222 C0 148.74 0 75.48 0 0 Z " fill="#9D9D9D" transform="translate(515,129)"/>
<path d="M0 0 C1.32 0 2.64 0 4 0 C4 42.57 4 85.14 4 129 C3.01 128.67 2.02 128.34 1 128 C1 86.42 1 44.84 1 2 C0.34 1.67 -0.32 1.34 -1 1 C-0.67 0.67 -0.34 0.34 0 0 Z " fill="#AEB3BB" transform="translate(514,0)"/>
<path d="M0 0 C29.7 0 59.4 0 90 0 C89.34 0.99 88.68 1.98 88 3 C85.15899567 3.28618725 82.53689419 3.37815744 79.69482422 3.34057617 C78.83621796 3.34101425 77.97761169 3.34145233 77.09298706 3.34190369 C74.24665822 3.33980874 71.40091381 3.31644467 68.5546875 3.29296875 C66.58456748 3.2873753 64.6144433 3.28310402 62.64431763 3.28010559 C57.4524997 3.26863705 52.26093254 3.23915262 47.06921387 3.20599365 C41.77404167 3.17533601 36.47882906 3.16160948 31.18359375 3.14648438 C20.78895217 3.11428482 10.39449692 3.06306426 0 3 C0 2.01 0 1.02 0 0 Z " fill="#949290" transform="translate(0,516)"/>
<path d="M0 0 C0.99 0 1.98 0 3 0 C3 12.87 3 25.74 3 39 C2.01 39 1.02 39 0 39 C0 26.13 0 13.26 0 0 Z " fill="#999A9B" transform="translate(515,129)"/>
<path d="M0 0 C11.22 0 22.44 0 34 0 C33.67 0.99 33.34 1.98 33 3 C22.11 3 11.22 3 0 3 C0 2.01 0 1.02 0 0 Z " fill="#6A6867" transform="translate(0,516)"/>
<path d="M0 0 C9.41002278 -0.18451025 9.41002278 -0.18451025 14 1 C14 1.66 14 2.32 14 3 C9.38 3 4.76 3 0 3 C0 2.01 0 1.02 0 0 Z " fill="#656666" transform="translate(0,516)"/>
<path d="M0 0 C3.96 0 7.92 0 12 0 C11.01 1.485 11.01 1.485 10 3 C7.6171875 3.29296875 7.6171875 3.29296875 4.875 3.1875 C3.96492188 3.16042969 3.05484375 3.13335938 2.1171875 3.10546875 C1.41851562 3.07066406 0.71984375 3.03585937 0 3 C0 2.01 0 1.02 0 0 Z " fill="#979797" transform="translate(263,516)"/>
<path d="M0 0 C4.62 0 9.24 0 14 0 C13.01 1.485 13.01 1.485 12 3 C8.375 3.1875 8.375 3.1875 5 3 C5 2.34 5 1.68 5 1 C3.35 1 1.7 1 0 1 C0 0.67 0 0.34 0 0 Z " fill="#777777" transform="translate(9,516)"/>
<path d="M0 0 C0.99 0 1.98 0 3 0 C3 2.97 3 5.94 3 9 C2.01 9 1.02 9 0 9 C0 6.03 0 3.06 0 0 Z " fill="#6C7F8E" transform="translate(515,159)"/>
</svg>
